<?xml version="1.0" encoding="utf-8"?>
<!-- Generator: Adobe Illustrator 26.4.0, SVG Export Plug-In . SVG Version: 6.00 Build 0)  -->
<svg version="1.1" id="Ebene_1" xmlns="http://www.w3.org/2000/svg" xmlns:xlink="http://www.w3.org/1999/xlink" x="0px" y="0px"
	 viewBox="0 0 250 150" style="enable-background:new 0 0 250 150;" xml:space="preserve">
<style type="text/css">
	.st0{fill:#1D1D1B;}
	.st1{fill:#39A935;}
</style>
<g>
	<path class="st0" d="M36.58,31.54c-0.17,0.12-0.38,0.17-0.63,0.17c-0.14,0-0.27-0.01-0.38-0.04c-0.19-0.04-0.5-0.05-0.93-0.05
		c-0.89,0-1.91,0.06-3.06,0.19c-1.15,0.13-1.94,0.28-2.36,0.45c-0.45,1.37-0.73,3-0.84,4.89c0.3-0.04,0.59-0.08,0.9-0.12
		c1.12-0.12,2.16-0.26,3.12-0.44c0.81-0.14,1.45-0.22,1.94-0.22c1.09,0,1.64,0.38,1.64,1.15c0,0.14-0.11,0.32-0.32,0.56
		c-0.21,0.23-0.44,0.4-0.69,0.5c-0.24,0.1-0.7,0.2-1.36,0.29l-2.9,0.36c-1.11,0.14-1.93,0.27-2.46,0.41
		c-0.08,0.04-0.14,0.1-0.18,0.2c-0.04,0.1-0.09,0.53-0.15,1.31c-0.06,0.77-0.09,1.49-0.09,2.14l0.04,1.37c0,0.85-0.4,1.28-1.19,1.28
		c-0.4,0-0.79-0.15-1.15-0.44c-0.36-0.3-0.55-0.7-0.55-1.2c0-0.94,0.11-2.28,0.32-4.03c0.01-0.08,0.39-2.74,1.12-7.99
		c0-0.24-0.04-0.45-0.11-0.63c-0.11-0.31-0.16-0.56-0.16-0.75c0-0.26,0.15-0.53,0.46-0.82c0.31-0.28,0.59-0.43,0.85-0.43
		c0.17,0,0.35,0.02,0.54,0.06c0.27,0.06,0.54,0.09,0.83,0.09c0.28,0,1.43-0.12,3.46-0.35c1.32-0.14,2.3-0.22,2.95-0.22
		c0.68,0,1.22,0.11,1.59,0.32c0.38,0.21,0.57,0.41,0.57,0.58c0,0.61-0.28,1.07-0.84,1.39V31.54z"/>
	<path class="st0" d="M44.45,41.41c-1.89,2.5-3.72,3.75-5.49,3.75c-0.65,0-1.21-0.26-1.67-0.77c-0.47-0.51-0.7-1.16-0.7-1.96
		c0-1.91,0.85-3.94,2.55-6.1c1.7-2.16,3.41-3.24,5.14-3.24c0.88,0,1.45,0.44,1.73,1.33c0.83,0,1.24,0.32,1.24,0.95
		c0,0.3-0.08,0.85-0.24,1.64c-0.29,1.48-0.43,2.67-0.43,3.55c0,0.92,0.06,1.57,0.19,1.94c0.13,0.37,0.22,0.62,0.28,0.73
		c0.06,0.12,0.23,0.24,0.52,0.37c0.29,0.14,0.43,0.33,0.43,0.57c0,0.37-0.19,0.67-0.56,0.92c-0.37,0.24-0.76,0.37-1.16,0.37
		C44.92,45.48,44.31,44.12,44.45,41.41z M43.8,35.41c-0.73,0-1.67,0.81-2.84,2.41c-1.16,1.61-1.74,2.98-1.74,4.1
		c0,0.59,0.12,0.89,0.37,0.89c0.85,0,1.9-0.75,3.14-2.26c1.24-1.51,1.86-2.83,1.86-3.96c0-0.36-0.08-0.65-0.24-0.86
		C44.18,35.52,44,35.41,43.8,35.41z"/>
	<path class="st0" d="M51.89,40.05c1.2-2.24,2.23-3.77,3.1-4.58c0.87-0.81,1.74-1.22,2.63-1.22c0.61,0,1.12,0.21,1.53,0.63
		c0.41,0.42,0.7,1.52,0.89,3.29c0.08,0.84,0.18,1.52,0.3,2.04c0.12,0.52,0.26,0.98,0.41,1.38c0.15,0.4,0.37,0.78,0.65,1.13
		c0.22,0.28,0.32,0.55,0.32,0.81c0,0.26-0.12,0.5-0.37,0.71c-0.25,0.22-0.53,0.32-0.86,0.32c-0.64,0-1.21-0.35-1.71-1.05
		c-0.5-0.7-0.79-1.66-0.89-2.9c-0.12-1.51-0.24-2.47-0.37-2.88c-0.13-0.42-0.35-0.63-0.66-0.63c-0.42,0-1.23,0.83-2.44,2.5
		c-1.21,1.67-2.08,3-2.61,4c-0.33,0.76-0.59,1.25-0.77,1.47c-0.18,0.22-0.4,0.33-0.67,0.33c-0.44,0-0.8-0.11-1.07-0.32
		c-0.27-0.22-0.41-0.52-0.41-0.92c0-0.19,0.1-0.8,0.29-1.83c0.73-3.87,1.34-7.99,1.8-12.35c0.12-1.05,0.34-1.78,0.66-2.18
		c0.33-0.4,0.63-0.6,0.9-0.6c0.38,0,0.71,0.15,0.99,0.44c0.28,0.3,0.42,0.71,0.42,1.23c0,0.81-0.1,1.74-0.29,2.79
		c-0.19,1.05-0.56,2.73-1.09,5.04C52.27,38.12,52.03,39.23,51.89,40.05z"/>
	<path class="st0" d="M65.39,39.67l0.18-0.35c0.87-1.75,1.81-3.17,2.81-4.26c1-1.09,1.99-1.64,2.94-1.64c0.73,0,1.33,0.2,1.8,0.61
		c0.46,0.4,0.7,0.88,0.7,1.44c0,0.35-0.08,0.64-0.24,0.89c-0.16,0.25-0.38,0.37-0.66,0.37c-0.45,0-0.85-0.18-1.22-0.55
		c-0.26-0.24-0.46-0.36-0.62-0.36c-0.54,0-1.44,0.84-2.71,2.52c-1.27,1.68-2.03,3.57-2.29,5.66c-0.08,0.61-0.26,1.03-0.53,1.27
		c-0.27,0.24-0.64,0.36-1.11,0.36c-0.5,0-0.85-0.28-1.06-0.85c-0.21-0.57-0.31-1.49-0.31-2.77c0-0.53,0.01-1.24,0.04-2.13
		c0.03-0.84,0.11-1.87,0.25-3.09c0.04-0.32,0.06-0.57,0.08-0.75c0.06-0.71,0.14-1.19,0.22-1.45s0.28-0.51,0.58-0.74
		c0.3-0.23,0.64-0.35,1-0.35c0.39,0,0.68,0.11,0.89,0.33c0.2,0.22,0.3,0.47,0.3,0.73c0,0.34-0.16,1.04-0.49,2.11
		c-0.12,0.37-0.21,0.81-0.29,1.32L65.39,39.67z"/>
	<path class="st0" d="M78.89,42.28c-0.03-0.39-0.65-0.86-1.86-1.43c-1.48-0.71-2.43-1.33-2.84-1.84c-0.41-0.51-0.62-1.08-0.62-1.68
		c0-1.28,0.71-2.39,2.14-3.34c1.43-0.95,2.76-1.43,4-1.43c1.22,0,1.83,0.53,1.83,1.59c0,0.28-0.14,0.53-0.42,0.76
		c-0.28,0.22-0.51,0.33-0.71,0.33c-0.08,0-0.22-0.05-0.42-0.15c-0.2-0.1-0.36-0.15-0.46-0.15c-0.64,0-1.35,0.22-2.12,0.65
		c-0.77,0.43-1.16,0.94-1.16,1.51c0,0.28,0.14,0.55,0.41,0.82c0.27,0.26,0.83,0.59,1.67,0.99c1.25,0.59,2.07,1.12,2.46,1.6
		c0.4,0.48,0.59,1,0.59,1.58c0,1.05-0.71,1.93-2.13,2.63c-1.42,0.7-3.02,1.05-4.79,1.05c-1.3,0-1.96-0.47-1.96-1.42
		c0-0.35,0.14-0.64,0.41-0.89c0.27-0.24,0.58-0.37,0.92-0.37c0.14,0,0.35,0.05,0.64,0.15c0.29,0.11,0.55,0.16,0.8,0.16
		c0.68,0,1.39-0.11,2.13-0.32C78.16,42.87,78.65,42.6,78.89,42.28z"/>
	<path class="st0" d="M85.78,45.62c-1.19,0-2.09-0.32-2.71-0.97c-0.62-0.65-0.93-1.55-0.93-2.7c0-1.82,0.74-3.78,2.22-5.89
		c1.48-2.11,2.92-3.17,4.34-3.17c0.68,0,1.27,0.34,1.75,1.02c0.48,0.68,0.72,1.39,0.72,2.12c0,0.69-0.13,1.16-0.38,1.4
		c-0.26,0.24-0.5,0.36-0.74,0.36c-0.7,0-1.11-0.48-1.22-1.45c-0.09-0.71-0.26-1.06-0.53-1.06c-0.56,0-1.3,0.8-2.23,2.4
		c-0.92,1.6-1.38,3-1.38,4.2c0,0.97,0.53,1.46,1.58,1.46c1.16,0,2.33-0.41,3.51-1.23c0.55-0.4,0.99-0.59,1.32-0.59
		c0.4,0,0.59,0.2,0.59,0.59c0,0.55-0.64,1.28-1.91,2.17C88.51,45.18,87.18,45.62,85.78,45.62z"/>
	<path class="st0" d="M95.66,40.05c1.2-2.24,2.23-3.77,3.1-4.58c0.87-0.81,1.74-1.22,2.63-1.22c0.61,0,1.12,0.21,1.53,0.63
		c0.41,0.42,0.7,1.52,0.89,3.29c0.08,0.84,0.18,1.52,0.3,2.04s0.26,0.98,0.41,1.38c0.15,0.4,0.37,0.78,0.65,1.13
		c0.22,0.28,0.32,0.55,0.32,0.81c0,0.26-0.12,0.5-0.37,0.71c-0.25,0.22-0.53,0.32-0.86,0.32c-0.64,0-1.21-0.35-1.71-1.05
		c-0.5-0.7-0.79-1.66-0.89-2.9c-0.12-1.51-0.24-2.47-0.37-2.88c-0.13-0.42-0.35-0.63-0.66-0.63c-0.42,0-1.23,0.83-2.44,2.5
		c-1.21,1.67-2.08,3-2.61,4c-0.33,0.76-0.59,1.25-0.77,1.47c-0.18,0.22-0.4,0.33-0.67,0.33c-0.44,0-0.8-0.11-1.07-0.32
		c-0.27-0.22-0.41-0.52-0.41-0.92c0-0.19,0.1-0.8,0.29-1.83c0.73-3.87,1.34-7.99,1.8-12.35c0.11-1.05,0.34-1.78,0.66-2.18
		c0.33-0.4,0.63-0.6,0.9-0.6c0.38,0,0.71,0.15,0.99,0.44c0.28,0.3,0.42,0.71,0.42,1.23c0,0.81-0.1,1.74-0.29,2.79
		c-0.19,1.05-0.56,2.73-1.09,5.04C96.04,38.12,95.81,39.23,95.66,40.05z"/>
	<path class="st0" d="M114.07,41.07c-0.69,1.26-1.49,2.26-2.4,3c-0.91,0.74-1.84,1.11-2.77,1.11c-0.55,0-1.11-0.29-1.68-0.88
		c-0.57-0.58-0.85-1.48-0.85-2.69c0-0.86,0.22-2.15,0.65-3.88c0.37-1.43,0.56-2.51,0.56-3.25c0.29-0.61,0.74-0.91,1.35-0.91
		c0.42,0,0.75,0.14,1,0.42c0.25,0.28,0.37,0.56,0.37,0.84c0,0.51-0.18,1.24-0.54,2.18c-0.21,0.56-0.43,1.36-0.68,2.38
		c-0.24,1.03-0.36,1.68-0.36,1.97c0,0.96,0.2,1.44,0.59,1.44c0.63,0,1.47-0.6,2.54-1.8c1.07-1.2,1.76-2.43,2.09-3.7
		c0.32-1.23,0.61-2.04,0.86-2.42c0.25-0.38,0.61-0.57,1.07-0.57c0.75,0,1.12,0.42,1.12,1.25c0,0.12-0.06,0.37-0.18,0.73
		c-0.43,1.28-0.64,2.71-0.64,4.31c0,1.87,0.32,2.99,0.95,3.36c0.21,0.12,0.31,0.27,0.31,0.45c0,0.26-0.18,0.5-0.55,0.73
		c-0.37,0.23-0.72,0.35-1.05,0.35c-0.57,0-1.01-0.4-1.31-1.2C114.23,43.51,114.07,42.43,114.07,41.07z"/>
	<path class="st0" d="M123.32,26.74c0.78,0,1.17,0.43,1.17,1.28c0,0.39-0.05,0.81-0.16,1.26c-0.11,0.45-0.4,1.57-0.89,3.34
		c-0.35,1.29-0.62,2.7-0.81,4.22c-0.18,1.52-0.28,2.71-0.28,3.57c0,0.91,0.07,2,0.21,3.26c0.04,0.34,0.05,0.55,0.05,0.64
		c0,0.43-0.16,0.8-0.48,1.11c-0.32,0.31-0.66,0.46-1.04,0.46c-0.51,0-0.87-0.24-1.08-0.72s-0.31-1.31-0.31-2.49
		c0-2.53,0.3-5.51,0.89-8.94c0.59-3.43,1.08-5.45,1.46-6.07C122.44,27.05,122.86,26.74,123.32,26.74z"/>
	<path class="st0" d="M134.77,41.31c0,0.75-0.63,1.64-1.89,2.69c-1.26,1.04-2.68,1.56-4.27,1.56c-1.22,0-2.18-0.38-2.87-1.15
		c-0.7-0.77-1.05-1.84-1.05-3.2c0-2.02,0.71-3.91,2.14-5.67c1.43-1.76,2.95-2.65,4.57-2.65c0.81,0,1.46,0.26,1.94,0.77
		c0.49,0.51,0.73,1.12,0.73,1.83c0,1.25-0.6,2.45-1.8,3.58c-1.2,1.13-2.74,1.92-4.62,2.35c-0.22,0.05-0.32,0.18-0.32,0.39
		c0,0.35,0.15,0.68,0.46,0.99c0.31,0.31,0.71,0.47,1.23,0.47c1.45,0,2.89-0.75,4.31-2.24c0.27-0.29,0.54-0.43,0.8-0.43
		C134.56,40.59,134.77,40.83,134.77,41.31z M127.52,39.4c1.14-0.23,2.14-0.72,3.01-1.46c0.87-0.74,1.3-1.42,1.3-2.02
		c0-0.24-0.07-0.44-0.2-0.6c-0.13-0.16-0.3-0.24-0.51-0.24c-0.63,0-1.32,0.46-2.09,1.38C128.27,37.38,127.77,38.36,127.52,39.4z"/>
</g>
<g>
	<path class="st0" d="M35.35,112.59h1.93l1.41,4.63l1.25-4.63h1.44l1.26,4.63l1.4-4.63h1.93l-2.75,7.59h-1.12l-1.44-4.92l-1.44,4.92
		h-1.12L35.35,112.59z"/>
	<path class="st0" d="M46.42,112.59h1.93l1.41,4.63l1.25-4.63h1.44l1.26,4.63l1.4-4.63h1.93l-2.75,7.59h-1.12l-1.44-4.92l-1.44,4.92
		h-1.12L46.42,112.59z"/>
	<path class="st0" d="M57.49,112.59h1.93l1.41,4.63l1.25-4.63h1.44l1.26,4.63l1.4-4.63h1.93l-2.75,7.59h-1.12l-1.44-4.92l-1.44,4.92
		h-1.12L57.49,112.59z"/>
	<path class="st0" d="M69.41,118.36h1.82v1.82h-1.82V118.36z"/>
	<path class="st0" d="M73.15,114.21h-0.64v-1.62h0.64c0.04-1.44,0.95-2.73,2.48-2.73l0.49,0.03v1.81c-0.75,0-1.1,0.05-1.15,0.89
		h1.05v1.62h-1.05v5.97h-1.82V114.21z"/>
	<path class="st0" d="M84.74,120.18h-1.67v-1.03c-0.58,0.78-1.64,1.27-2.6,1.27c-1.18,0-2.14-0.49-2.79-1.27
		c-0.6-0.73-0.95-1.71-0.95-2.77s0.27-1.93,0.97-2.73c0.77-0.89,1.71-1.32,2.82-1.32c1.04,0,1.95,0.47,2.55,1.32c0,0,0,0,0-1.07
		h1.67V120.18z M80.82,114.13c-1.34-0.01-2.27,1-2.27,2.33c0,1.25,1.01,2.21,2.25,2.19c1.32,0.01,2.22-0.97,2.22-2.27
		C83.01,115.1,82.11,114.11,80.82,114.13z"/>
	<path class="st0" d="M86.21,110.06h1.82v3.11c0.41-0.56,1.27-0.82,1.95-0.82c0.82,0,1.7,0.4,2.23,1.01c0.7,0.79,0.73,1.7,0.73,2.71
		v4.11h-1.82v-3.71c0-1.14-0.12-2.34-1.55-2.34c-0.52,0-0.96,0.22-1.25,0.66c-0.3,0.48-0.29,1.18-0.29,1.71v3.69h-1.82V110.06z"/>
	<path class="st0" d="M94.53,112.59h1.66v0.69c0.42-0.64,0.9-0.93,1.66-0.93h0.14v1.77c-0.37,0-0.81,0.12-1.11,0.36
		c-0.52,0.42-0.53,0.99-0.52,1.62v4.1h-1.82V112.59z"/>
	<path class="st0" d="M102.05,114.68c-0.05-0.36-0.36-0.55-0.7-0.55c-0.4,0-0.73,0.23-0.71,0.64c-0.01,0.51,0.66,0.63,1.03,0.74
		c1.22,0.37,2.37,0.78,2.37,2.3c0,0.71-0.26,1.33-0.77,1.82c-0.51,0.47-1.27,0.79-1.97,0.79c-1.55,0-2.7-1.07-2.75-2.63h1.86
		c0.1,0.48,0.42,0.85,0.96,0.85c0.44,0,0.85-0.25,0.85-0.73c0-0.63-0.81-0.82-1.29-0.99c-0.56-0.18-0.9-0.27-1.37-0.66
		c-0.49-0.41-0.74-0.95-0.74-1.59c0-1.41,1.22-2.34,2.56-2.34c1.26,0,2.45,1.03,2.45,2.33H102.05z"/>
	<path class="st0" d="M112.66,117.72c-0.49,1.62-2.1,2.71-3.77,2.71c-1.03,0-2.08-0.42-2.82-1.14c-0.82-0.78-1.23-1.84-1.23-2.96
		c0-2.22,1.84-3.99,4.04-3.99c1.67,0,3.33,1.12,3.78,2.77h-2.05c-0.4-0.67-0.97-0.99-1.75-0.99c-1.3,0-2.19,0.97-2.19,2.23
		c0,1.34,0.96,2.29,2.29,2.29c0.67,0,1.32-0.37,1.66-0.93H112.66z"/>
	<path class="st0" d="M114.04,110.06h1.82v3.11c0.41-0.56,1.27-0.82,1.95-0.82c0.82,0,1.7,0.4,2.23,1.01
		c0.7,0.79,0.73,1.7,0.73,2.71v4.11h-1.82v-3.71c0-1.14-0.12-2.34-1.55-2.34c-0.52,0-0.96,0.22-1.25,0.66
		c-0.3,0.48-0.29,1.18-0.29,1.71v3.69h-1.82V110.06z"/>
	<path class="st0" d="M129.12,112.59v7.59h-1.67v-0.81c-0.41,0.74-1.12,1.06-1.96,1.06c-0.9,0-1.77-0.34-2.4-1.06
		c-0.69-0.73-0.73-1.52-0.73-2.49v-4.29h1.82v3.73c0,0.47,0.01,1.11,0.23,1.55c0.25,0.49,0.74,0.78,1.3,0.78
		c1.38,0,1.58-1.25,1.58-2.33v-3.73H129.12z"/>
	<path class="st0" d="M130.7,110.06h1.82v10.12h-1.82V110.06z"/>
	<path class="st0" d="M135.7,117.2c0.27,0.88,1.08,1.45,2,1.45c0.69,0,1.34-0.26,1.7-0.66h2.01c-0.47,1.36-2.04,2.44-3.64,2.44
		c-2.21,0-4-1.78-4-3.99c0-2.25,1.75-4.1,4.03-4.1c2.16,0,3.89,1.86,3.89,3.99c0,0.29-0.05,0.58-0.1,0.86H135.7z M139.85,115.58
		c-0.3-0.9-1.14-1.45-2.07-1.45c-0.9,0-1.84,0.58-2.11,1.45H139.85z"/>
	<path class="st0" d="M142.97,110.06h1.82v10.12h-1.82V110.06z"/>
	<path class="st0" d="M154.05,120.18h-1.67v-1.03c-0.58,0.78-1.64,1.27-2.6,1.27c-1.18,0-2.14-0.49-2.79-1.27
		c-0.6-0.73-0.95-1.71-0.95-2.77s0.27-1.93,0.97-2.73c0.77-0.89,1.71-1.32,2.82-1.32c1.04,0,1.95,0.47,2.55,1.32c0,0,0,0,0-1.07
		h1.67V120.18z M150.14,114.13c-1.34-0.01-2.27,1-2.27,2.33c0,1.25,1.01,2.21,2.25,2.19c1.32,0.01,2.22-0.97,2.22-2.27
		C152.33,115.1,151.42,114.11,150.14,114.13z"/>
	<path class="st0" d="M155.52,112.59h1.68v0.7c0.48-0.63,1.3-0.95,2.1-0.95c0.79,0,1.62,0.36,2.16,0.95
		c0.07,0.07,0.14,0.14,0.19,0.22c0.59,0.82,0.6,1.77,0.6,2.74v3.93h-1.82v-3.58c0-0.59,0-1.34-0.31-1.85
		c-0.26-0.4-0.74-0.63-1.21-0.63c-0.49,0-1.03,0.26-1.27,0.67c-0.33,0.52-0.3,1.34-0.3,1.95v3.44h-1.82V112.59z"/>
	<path class="st0" d="M171.48,112.59v6.44c0,1.18-0.25,2.07-1.07,2.93c-0.78,0.81-1.88,1.3-3.01,1.3c-1.6,0-3.21-0.97-3.77-2.51
		h2.07c0.41,0.44,1.11,0.73,1.7,0.73c0.6,0,1.26-0.22,1.7-0.63c0.55-0.51,0.62-1.03,0.73-1.73c-0.63,0.78-1.41,1.3-2.45,1.3
		c-0.96,0-2.06-0.51-2.71-1.19c-0.75-0.78-1.14-1.88-1.14-2.96c0-1,0.38-1.93,1.01-2.64c0.71-0.78,1.74-1.29,2.88-1.29
		c0.99,0,1.92,0.41,2.4,1.29v-1.04H171.48z M167.49,114.13c-0.59,0-1.15,0.26-1.55,0.67c-0.42,0.44-0.6,0.95-0.6,1.55
		c0,1.32,0.97,2.3,2.29,2.3c1.21,0,2.14-1.07,2.14-2.23C169.77,115.11,168.78,114.13,167.49,114.13z"/>
	<path class="st0" d="M173,110.06h1.82v3.11c0.41-0.56,1.27-0.82,1.95-0.82c0.82,0,1.7,0.4,2.23,1.01c0.7,0.79,0.73,1.7,0.73,2.71
		v4.11h-1.82v-3.71c0-1.14-0.12-2.34-1.55-2.34c-0.52,0-0.96,0.22-1.25,0.66c-0.3,0.48-0.29,1.18-0.29,1.71v3.69H173V110.06z"/>
	<path class="st0" d="M189.07,116.4c0,2.25-1.82,4.03-4.05,4.03c-2.19,0-4.01-1.82-4.01-4.03c0-2.27,1.82-4.05,4.1-4.05
		C187.33,112.35,189.07,114.2,189.07,116.4z M183.45,114.83c-0.42,0.42-0.63,0.97-0.63,1.58c0,1.22,0.95,2.25,2.19,2.25
		c1.29,0,2.23-0.97,2.23-2.25c0-1.25-0.97-2.27-2.23-2.27C184.45,114.13,183.84,114.41,183.45,114.83z"/>
	<path class="st0" d="M190.25,114.21h-0.64v-1.62h0.64c0.04-1.44,0.95-2.73,2.48-2.73l0.49,0.03v1.81c-0.75,0-1.1,0.05-1.15,0.89
		h1.05v1.62h-1.05v5.97h-1.82V114.21z"/>
	<path class="st0" d="M194.4,118.36h1.82v1.82h-1.82V118.36z"/>
	<path class="st0" d="M205.75,120.18h-1.67v-1.03c-0.56,0.84-1.56,1.27-2.55,1.27c-1.11,0-2.07-0.51-2.74-1.27
		c-0.64-0.74-1.03-1.73-1.03-2.74s0.34-2.01,1.03-2.78c0.69-0.77,1.75-1.29,2.79-1.29c0.88,0,1.77,0.36,2.34,1.03v-3.32h1.82V120.18
		z M201.78,114.13c-1.16,0-2.19,1.04-2.19,2.21c0,1.26,0.95,2.32,2.22,2.32c1.26,0,2.25-1.03,2.25-2.27
		C204.05,115.11,203.03,114.13,201.78,114.13z"/>
	<path class="st0" d="M208.85,117.2c0.27,0.88,1.08,1.45,2,1.45c0.69,0,1.34-0.26,1.7-0.66h2.01c-0.47,1.36-2.04,2.44-3.64,2.44
		c-2.21,0-4-1.78-4-3.99c0-2.25,1.75-4.1,4.03-4.1c2.16,0,3.89,1.86,3.89,3.99c0,0.29-0.05,0.58-0.1,0.86H208.85z M213,115.58
		c-0.3-0.9-1.14-1.45-2.07-1.45c-0.9,0-1.84,0.58-2.11,1.45H213z"/>
</g>
<path class="st0" d="M45.02,71.88l-0.54,2.35c-0.72,3.02-1.36,6.01-1.92,8.98c-0.27,1.44-0.62,3.92-1.05,7.46
	c1.5-0.39,3.5-1.07,5.98-2.03c1.6-0.62,2.58-0.96,2.93-1.02c0.64-0.11,1.01,0.09,1.09,0.6c0.1,0.6-0.12,1.51-0.65,2.72
	c-0.53,1.21-1.17,2.28-1.92,3.22c-0.51,0.67-1.34,1.22-2.5,1.65c-1.15,0.43-2.99,0.86-5.51,1.31c-2.36,0.41-4.19,0.66-5.49,0.74
	c-0.02,0-0.34-0.04-0.95-0.11c-1.12-0.25-1.8-1.07-2.04-2.46c-0.18-1-0.21-2.89-0.11-5.65c0.11-2.76,0.36-6.22,0.76-10.37
	c0.95-9.27,1.88-15.05,2.8-17.35c0.28-0.78,0.71-1.42,1.26-1.92c0.56-0.5,1.36-0.95,2.41-1.36c1.01-0.4,2.2-0.72,3.57-0.95
	c1.28-0.22,2.2-0.21,2.77,0.02c0.57,0.23,0.92,0.74,1.06,1.52c0.13,0.75,0.03,2.2-0.29,4.37C46.36,65.74,45.81,68.51,45.02,71.88z"
	/>
<path class="st0" d="M71.43,83.25l0.02,0.11l-0.13-0.09c-1.42,2.29-2.74,4.19-3.98,5.71c-1.23,1.52-2.4,2.7-3.5,3.55
	c-1.1,0.85-2.16,1.36-3.17,1.54c-2.05,0.36-3.86-0.03-5.42-1.16c-1.56-1.13-2.51-2.75-2.86-4.85c-0.21-1.3-0.13-2.89,0.24-4.77
	c0.37-1.88,1.01-3.78,1.89-5.68c1.5-3.11,3.57-5.89,6.22-8.33c2.74-2.52,5.54-4.02,8.39-4.51c2.4-0.41,4.44-0.27,6.14,0.42
	c1.69,0.69,2.64,1.77,2.86,3.23c0.16,1.08-0.05,2.28-0.64,3.62c1.01-0.17,1.66-0.18,1.95-0.01c0.29,0.17,0.5,0.63,0.61,1.4
	c-0.01-0.07,0,0.31,0.03,1.15c0.15,1.83,0.35,3.52,0.58,5.09c0.12,0.82,0.22,1.44,0.3,1.86c0.08,0.42,0.19,0.89,0.32,1.43
	c0.13,0.54,0.25,0.97,0.36,1.28c0.27,0.83,0.64,1.64,1.09,2.42c-0.95,1.27-1.9,2.24-2.84,2.92c-0.94,0.68-1.94,1.11-2.99,1.29
	c-2.84,0.5-4.61-1.61-5.32-6.32C71.49,84,71.44,83.56,71.43,83.25z M72.15,76.69l-0.5,0.26c-1.28,0.6-2.22,0.95-2.81,1.05
	c-0.72,0.13-1.11,0.01-1.17-0.36c-0.02-0.13,0.08-0.49,0.29-1.09c0.8-1.73,1.1-3.28,0.88-4.65c-0.12-0.78-0.37-1.48-0.75-2.08
	c-0.38-0.6-0.74-0.87-1.08-0.81c-0.3,0.05-0.71,0.44-1.23,1.17c-1.44,2.14-2.52,4.27-3.22,6.38c-0.7,2.11-0.94,3.92-0.7,5.43
	c0.16,1,0.5,1.8,1.02,2.38c0.52,0.58,1.09,0.82,1.72,0.71c0.54-0.09,1.45-0.83,2.75-2.22c1.3-1.39,2.72-3.17,4.27-5.35l0.66-0.73
	L72.15,76.69z"/>
<path class="st0" d="M94.87,72.57l1.43-2.21c1.46-2.14,2.63-3.75,3.51-4.83c0.88-1.08,1.7-1.88,2.44-2.42
	c0.75-0.54,1.53-0.88,2.36-1.02c1.34-0.23,2.32-0.04,2.96,0.56c0.64,0.6,1.07,1.76,1.29,3.47c0.09,0.71,0.15,1.77,0.18,3.19
	c0.01,1.88,0.12,3.63,0.33,5.26c0.23,1.82,0.51,3.29,0.84,4.38c0.22,0.67,0.5,1.33,0.85,1.98c0.27,0.62,0.42,1.06,0.45,1.29
	c0.04,0.29-0.05,0.54-0.25,0.74c-0.51,0.59-1.22,1.15-2.12,1.68c-0.9,0.53-1.68,0.85-2.33,0.96c-1.06,0.18-2.06-0.01-3.02-0.57
	c-0.96-0.56-1.75-1.43-2.39-2.61c-0.64-1.18-1.07-2.56-1.28-4.15c-0.14-1.06-0.2-2.33-0.17-3.81l-0.13-0.09
	c-0.68,1.01-1.24,1.82-1.67,2.41c-0.43,0.6-0.82,1.16-1.19,1.69c-1.77,2.7-3.24,5.11-4.43,7.24c-0.46,0.83-0.88,1.55-1.26,2.18
	c-0.59,0.79-1.32,1.27-2.19,1.42c-1.18,0.21-2.2-0.06-3.07-0.81c-0.86-0.75-1.39-1.81-1.59-3.2c-0.12-0.86-0.17-1.92-0.14-3.2
	c0.03-1.28,0.11-2.65,0.25-4.12c0.14-1.47,0.34-3,0.6-4.58c0.26-1.58,0.57-3.09,0.94-4.54c0.54-2.39,1.34-4.32,2.4-5.79
	c0.73-0.97,1.7-1.55,2.9-1.76c1.96-0.33,3.11,0.73,3.45,3.19c0.25,1.81,0.22,4.46-0.09,7.96L94.87,72.57z"/>
<path class="st0" d="M130.6,73.51l-0.7,0.68c-0.05,0.06-0.13,0.15-0.24,0.26c-0.11,0.11-0.25,0.26-0.42,0.44
	c-2.95,3.02-5.29,5.19-7.01,6.51c-1.72,1.32-3.25,2.1-4.61,2.33c-1.51,0.26-2.79-0.07-3.84-0.98c-1.05-0.92-1.69-2.28-1.92-4.08
	c-0.28-2.24,0.07-4.68,1.07-7.3c1-2.62,2.45-5.12,4.35-7.49c1.9-2.37,4.07-4.38,6.49-6.04c2.43-1.65,4.85-2.68,7.26-3.09
	c2.37-0.4,4.23-0.32,5.56,0.26c1.33,0.57,2.08,1.65,2.26,3.21c0.15,1.31-0.21,3.03-1.08,5.15c0.78-0.08,1.37,0.06,1.78,0.41
	c0.4,0.35,0.65,0.96,0.75,1.84c0.15,1.42,0.07,3.46-0.26,6.11c-0.33,2.65-0.81,5.12-1.43,7.42c-0.75,2.9-1.99,5.52-3.71,7.86
	c-1.3,1.77-2.98,3.38-5.03,4.84c-2.04,1.46-3.84,2.33-5.4,2.6c-1.29,0.23-2.51-0.08-3.64-0.93c-1.14-0.85-1.78-1.91-1.93-3.18
	c-0.1-0.86,0.01-1.79,0.35-2.78c0.34-1,0.82-1.89,1.45-2.67c1.28-1.69,3.25-3.43,5.92-5.21c0.49-0.35,0.88-0.54,1.16-0.59
	c0.11-0.02,0.22,0.01,0.32,0.08c0.1,0.08,0.16,0.17,0.17,0.28c0.01,0.13-0.07,0.39-0.25,0.8c-0.45,1.03-0.81,2.3-1.07,3.83
	c-0.26,1.52-0.33,2.82-0.21,3.87c0.14,1.24,0.41,1.83,0.8,1.76c0.2-0.04,0.43-0.3,0.69-0.8c0.26-0.5,0.47-1.05,0.65-1.66
	c1.14-4.21,1.74-8.04,1.81-11.47C130.68,75.25,130.65,74.5,130.6,73.51z M131.37,67.43l0.01,0.11l-0.13-0.09
	c-0.11,0.06-0.26,0.1-0.45,0.13c-0.35,0.1-0.8,0.19-1.35,0.29c-0.96,0.16-1.46,0.07-1.5-0.27c-0.02-0.18,0.08-0.42,0.29-0.72
	c0.62-0.91,1.12-2.04,1.49-3.41c0.37-1.37,0.53-2.57,0.46-3.62c-0.03-0.26-0.04-0.49-0.02-0.69c0.01-0.08,0.02-0.14,0.02-0.2
	c0-0.06,0-0.1,0-0.14c-0.03-0.26-0.22-0.35-0.58-0.29c-0.74,0.13-1.78,1.08-3.13,2.88c-0.85,1.15-1.61,2.47-2.3,3.97
	c-0.69,1.49-1.18,2.96-1.49,4.39c-0.31,1.43-0.4,2.68-0.27,3.76c0.13,1.06,0.46,1.54,1,1.45c0.52-0.09,1.74-1.17,3.66-3.25
	C127.96,70.74,129.38,69.32,131.37,67.43z"/>
<path class="st0" d="M158.88,42.39l-0.04-0.44c-0.07-0.67-0.2-1-0.39-0.96c-0.25,0.04-0.6,0.47-1.06,1.29
	c-0.45,0.82-0.85,1.71-1.18,2.67c-0.82,2.46-1.5,5.03-2.04,7.71c-0.54,2.68-0.9,5.33-1.08,7.93c-0.05,1.01-0.11,2.11-0.16,3.28
	l0.15,0.09c1.7-2.2,2.99-3.77,3.84-4.71c0.85-0.94,1.97-2.04,3.36-3.29c1.75-1.56,3.23-2.44,4.45-2.64c0.78-0.13,1.41,0.03,1.89,0.5
	c0.48,0.47,0.76,1.17,0.85,2.12c0.05,0.55,0.01,1.35-0.13,2.41c-0.2,2.22-0.23,4.07-0.1,5.55c0.06,0.67,0.18,1.38,0.36,2.11
	c0.15,0.57,0.57,1.69,1.25,3.37c0.55,1.28,0.84,1.99,0.85,2.13c0.02,0.26-0.26,0.62-0.85,1.09c-1.88,1.62-3.66,2.57-5.33,2.86
	c-1.37,0.23-2.55-0.22-3.52-1.37c-0.98-1.15-1.57-2.77-1.77-4.85c-0.08-0.82-0.09-1.83-0.03-3.03l-0.15-0.09
	c-2.42,3.13-4.03,5.23-4.84,6.32c-3.03,3.71-5.44,5.72-7.24,6.03c-0.82,0.14-1.56-0.28-2.2-1.25c-0.65-0.98-1.06-2.32-1.24-4.04
	c-0.39-3.68,0.28-8.59,2.04-14.72c0.71-2.39,1.49-4.69,2.34-6.9c0.85-2.21,1.69-4.14,2.5-5.78c0.6-1.16,1.24-2.19,1.94-3.1
	c0.7-0.91,1.41-1.68,2.16-2.34c0.74-0.65,1.52-1.18,2.32-1.57c0.8-0.39,1.61-0.66,2.44-0.8c2.06-0.34,3.8-0.02,5.22,0.96
	c1.42,0.99,2.21,2.42,2.39,4.3c0.13,1.31-0.13,2.77-0.78,4.38c-0.64,1.61-1.61,3.2-2.89,4.77c-0.82,0.99-1.76,1.91-2.83,2.74
	c-1.07,0.84-1.92,1.31-2.54,1.42c-0.19,0.03-0.37,0-0.53-0.1c-0.17-0.1-0.26-0.25-0.28-0.45c-0.03-0.27,0.16-0.91,0.56-1.9
	c0.47-1.1,0.91-2.42,1.32-3.97c0.41-1.54,0.7-2.99,0.86-4.35C158.93,44.4,158.97,43.28,158.88,42.39z"/>
<path class="st0" d="M187.57,43.5c2.87-0.48,4.33-0.4,4.38,0.24c0.06,0.73-0.56,1.23-1.84,1.5c-1.55,0.35-2.97,1.01-4.25,1.99
	c-1.28,0.97-2.39,2.2-3.33,3.67c-0.93,1.47-1.62,3.07-2.07,4.79c-0.45,1.72-0.59,3.49-0.44,5.29c0.16,1.99,0.78,3.51,1.85,4.56
	c1.06,1.05,2.37,1.44,3.93,1.18c1.44-0.24,2.65-1.17,3.62-2.78c0.98-1.61,1.39-3.36,1.25-5.25c-0.12-1.55-0.57-2.95-1.35-4.19
	c-0.79-1.24-1.87-2.22-3.24-2.93c-0.59-0.33-0.89-0.58-0.91-0.76c-0.02-0.26,0.34-0.71,1.08-1.37c0.84-0.71,1.79-1.35,2.85-1.92
	c1.06-0.57,1.97-0.91,2.72-1.04c0.86-0.14,1.7-0.07,2.51,0.23c0.81,0.3,1.54,0.79,2.2,1.49c0.65,0.69,1.18,1.53,1.57,2.51
	c0.39,0.98,0.63,2.05,0.71,3.22c0.14,1.93-0.11,3.91-0.73,5.93c-0.63,2.02-1.52,3.71-2.67,5.09c-1.49,1.75-3.32,3.28-5.49,4.6
	c-2.17,1.32-4.27,2.15-6.29,2.5c-1.96,0.33-3.94,0.34-5.93,0.01c-1.99-0.33-3.6-0.93-4.82-1.82c-1.64-1.2-2.58-3.14-2.82-5.83
	c-0.19-2.12,0.16-4.32,1.06-6.62c0.9-2.3,2.2-4.47,3.91-6.51c1.71-2.04,3.66-3.74,5.82-5.11C183.02,44.76,185.26,43.89,187.57,43.5z
	"/>
<path class="st0" d="M211.24,61.43l0.04,1.51c-0.04,3.68-0.2,6.69-0.48,9.04c-0.28,2.35-0.67,3.83-1.16,4.43
	c-0.67,0.87-1.77,1.44-3.3,1.7c-1.64,0.28-2.84,0.17-3.59-0.33c-0.3-0.26-0.51-0.51-0.62-0.75c-0.11-0.24-0.19-0.7-0.23-1.37
	l-0.02-0.25l-0.02-0.27l-0.02-0.33c-0.29-5.14-0.12-10.38,0.49-15.72c0.62-5.34,1.58-10.28,2.9-14.81c1.32-4.53,2.87-8.2,4.63-11.01
	c1.77-2.81,3.62-4.38,5.55-4.7c0.88-0.14,1.55,0.03,2.03,0.51c0.47,0.48,0.74,1.25,0.81,2.29c0.1,1.55,0.03,3.23-0.21,5.03
	c-0.24,1.8-0.57,3.29-1,4.46c-0.42,1.18-0.89,1.81-1.39,1.89c-0.46,0.08-0.74-0.65-0.84-2.18l-0.03-0.52l-0.02-0.33
	c-0.1-1.53-0.2-2.53-0.3-2.99c-0.1-0.46-0.27-0.76-0.51-0.88c-0.19,0.44-0.31,0.93-0.37,1.47c-0.33,2.27-0.58,4.31-0.75,6.13
	c-0.18,1.82-0.43,4.76-0.76,8.84c-0.01,0.22-0.02,0.47-0.04,0.75c-0.02,0.28-0.03,0.53-0.04,0.75l0.4-0.07
	c0.23-0.06,0.44-0.11,0.63-0.15c0.19-0.04,0.49-0.1,0.89-0.16c0.72-0.21,1.38-0.37,1.95-0.47c2.29-0.38,3.47-0.01,3.53,1.12
	c0.03,0.58-0.14,1.33-0.52,2.23c-0.38,0.9-0.85,1.68-1.42,2.32c-0.56,0.65-1.21,1.16-1.95,1.53c-0.74,0.37-1.81,0.72-3.22,1.05
	c-0.31,0.05-0.52,0.09-0.64,0.12C211.53,61.35,211.4,61.38,211.24,61.43z"/>
<g>
	<path class="st1" d="M117.67,90.47c-0.1-0.83-0.03-1.71,0.2-2.63c-9.41,0.91-20.32,2.08-27.28,3.22c0,0-25.28,3.56-46.54,11.31
		c0,0-0.58,0.21-0.54,0.7c0,0-0.04,0.58,0.37,0.79l13.76,5.76c0,0,0.66,0.5,1.49,0c0,0,11.07-7.58,27.44-11.31
		c0,0,17.61-4.52,31.66-5.76c0,0,0.03,0,0.1-0.01C117.99,91.9,117.76,91.21,117.67,90.47z"/>
	<path class="st1" d="M224.34,75.93c0,0-2.45-3.15-5.59-4.56c0,0-0.99-0.66-1.57-0.21c0,0-0.83,0.87,0,1.49c0,0,2.24,1.7,2.98,3.36
		c0,0,1.7,3.56-3.69,5.26c0,0-6.88,2.69-24.66,3.03c0,0-15.5,0.37-22.21,0.46c0,0-20.17,0.56-32.66,1.41
		c-0.33,0.53-0.67,1.05-1.04,1.56c-0.86,1.17-1.88,2.28-3.05,3.32c6.58-0.59,14.85-1.21,23.7-1.6c0,0,14.84-0.79,20.22-0.95
		c0,0,18.77-0.79,27.73-2.28c0,0,13.97-1.7,18.32-4.89C222.81,81.32,226.45,79.08,224.34,75.93z"/>
</g>
</svg>
